<?xml version="1.0" encoding="utf-8"?>
<svg version="1.1" id="Capa_1" x="0px" y="0px" viewBox="0 0 612.003 612.003" style="enable-background:new 0 0 612.003 612.003;" xmlns="http://www.w3.org/2000/svg">
  <g transform="matrix(-1, 0, 0, 1, 612.004028, 0)">
    <g>
      <circle cx="194.481" cy="130.035" r="13.6" style="fill: rgb(0, 80, 31);"/>
      <path d="M470.232,395.557l5.096-67.659l-23.732-1.788l-3.798,50.408l-41.488-35.212l-125.006,1.498v-23.689 c10.892-0.573,21.579-2.912,31.835-6.997c11.42-4.549,21.709-11.001,30.644-19.206l178.54-6.059l-51.047-24.823 C355.064,202.513,280.054,121.261,271.84,112.144c-7.614-8.449-26.073-28.57-33.058-32.9 c-10.667-6.613-22.911-10.108-35.407-10.108c-8.927,0-17.68,1.768-26.015,5.255c-21.059,8.809-35.582,27.64-39.842,48.987 l-30.345,26.618l33.988,11.534c3.272,8.061,8.058,15.427,14.112,21.632c2.419,2.479,9.86,8.828,21.865,18.905 c-3.131,18.154-1.195,36.672,5.705,53.993c12.961,32.531,41.204,55.3,74.663,61.498v25.529l-125.509,1.503 c2.802-20.514-1.309-41.556-12.027-60.385c-12.862-22.599-33.311-38.68-57.576-45.279l-11.427-3.108l-3.164,11.412 c-6.718,24.233-3.332,50.025,9.53,72.625c5.231,9.19,11.732,17.279,19.217,24.112c-34.729,7.458-64.086,33.913-73.444,68.322 L0,423.717l11.412,3.164c7.983,2.213,16.26,3.335,24.6,3.335c39.851,0,76.48-25.495,90.439-61.758l179.33-2.147l-24.335,25.687 c-10.655-4.122-21.938-6.242-33.663-6.242c-37.335,0-71.623,21.178-87.353,53.952l-5.124,10.676l10.65,5.176 c12.682,6.164,26.392,9.289,40.748,9.289c18.229,0,35.725-5.059,50.695-14.042c-0.556,7.062-0.376,14.264,0.626,21.517 c3.555,25.76,16.571,48.283,36.655,63.418l9.457,7.126l7.174-9.421c15.233-20.007,21.665-45.213,18.112-70.972 c-3.045-22.067-13.052-41.743-28.478-56.449l38-40.111l58.753-0.704l198.904,168.818l15.402-18.146L470.232,395.557z M204.953,247.251c-5.984-15.018-7.075-31.208-3.16-46.821l1.81-7.216l-8.69-7.301c-5.566-4.668-20.35-17.064-22.608-19.375 c-5.265-5.396-9.056-12.175-10.961-19.604c-5.287-20.617,5.549-42.365,25.202-50.586c5.411-2.264,11.074-3.412,16.831-3.412 c8.061,0,15.97,2.261,22.749,6.46c1.902,1.316,11.257,10.059,28.075,28.723c7.714,8.561,72.837,79.13,174.982,138.077 l-95.498,3.242l-3.329,3.366c-7.393,7.48-16.148,13.267-26.025,17.2c-9.088,3.621-18.605,5.455-28.288,5.455 C244.525,295.461,216.619,276.539,204.953,247.251z M188.702,438.742c13.45-18.054,35.433-29.187,59.081-29.187 c6.19,0,12.208,0.773,18.001,2.307c-13.449,18.052-35.433,29.187-59.081,29.187C200.516,441.049,194.498,440.275,188.702,438.742z M305.844,465.726c2.014,14.594-0.355,29.343-6.55,42.047c-9.404-10.553-15.679-24.109-17.693-38.703 c-2.013-14.593,0.355-29.343,6.552-42.049C297.557,437.576,303.832,451.133,305.844,465.726z M68.49,266.607 c12.65,6.307,23.509,16.566,30.797,29.37c7.288,12.803,10.564,27.378,9.527,41.474c-12.65-6.307-23.509-16.566-30.797-29.371 C70.729,295.277,67.453,280.705,68.49,266.607z M36.012,406.417c-1.756,0-3.507-0.068-5.25-0.201 c11.97-24.109,37.756-40.568,65.65-40.568c1.756,0,3.507,0.068,5.25,0.201C89.692,389.958,63.904,406.417,36.012,406.417z" style="fill: rgb(0, 80, 31);"/>
    </g>
  </g>
  <g transform="matrix(-1, 0, 0, 1, 612.004028, 0)"/>
  <g transform="matrix(-1, 0, 0, 1, 612.004028, 0)"/>
  <g transform="matrix(-1, 0, 0, 1, 612.004028, 0)"/>
  <g transform="matrix(-1, 0, 0, 1, 612.004028, 0)"/>
  <g transform="matrix(-1, 0, 0, 1, 612.004028, 0)"/>
  <g transform="matrix(-1, 0, 0, 1, 612.004028, 0)"/>
  <g transform="matrix(-1, 0, 0, 1, 612.004028, 0)"/>
  <g transform="matrix(-1, 0, 0, 1, 612.004028, 0)"/>
  <g transform="matrix(-1, 0, 0, 1, 612.004028, 0)"/>
  <g transform="matrix(-1, 0, 0, 1, 612.004028, 0)"/>
  <g transform="matrix(-1, 0, 0, 1, 612.004028, 0)"/>
  <g transform="matrix(-1, 0, 0, 1, 612.004028, 0)"/>
  <g transform="matrix(-1, 0, 0, 1, 612.004028, 0)"/>
  <g transform="matrix(-1, 0, 0, 1, 612.004028, 0)"/>
  <g transform="matrix(-1, 0, 0, 1, 612.004028, 0)"/>
</svg>