<?xml version="1.0" encoding="utf-8"?>
<!-- Generator: Adobe Illustrator 26.0.2, SVG Export Plug-In . SVG Version: 6.00 Build 0)  -->
<svg version="1.1" id="Layer_1" xmlns="http://www.w3.org/2000/svg" xmlns:xlink="http://www.w3.org/1999/xlink" x="0px" y="0px"
	 viewBox="0 0 80 100" style="enable-background:new 0 0 80 100;" xml:space="preserve">
<style type="text/css">
	.st0{fill:none;stroke:#212322;stroke-linecap:round;stroke-linejoin:round;stroke-miterlimit:10;}
	.st1{fill:#212322;}
</style>
<path class="st1" d="M58.79,65.44l-0.41,0.19c-2.46,1.13-5.28,1.43-7.93,0.83c-1.43-0.32-2.76-0.88-3.97-1.65
	c2.4,0.63,5.02,0.33,7.23-0.84c0.1-0.05,0.21-0.11,0.31-0.17l0.43-0.24l-1.2-2.11l-0.43,0.25c-0.08,0.05-0.16,0.09-0.24,0.13
	c-2.39,1.26-5.21,1.17-7.54-0.23c-2.07-1.24-3.41-3.29-3.74-5.62c2.85-0.26,9.84-1.48,15.45-7.09c0.15-0.15,0.3-0.3,0.44-0.45
	c1.55-1.64,2.29-3.59,2.13-5.65c-0.14-1.81-0.97-3.56-2.33-4.92s-3.12-2.2-4.92-2.33c-1.61-0.13-3.19,0.31-4.58,1.26
	c-0.31-1.66-1.11-3.07-2.34-4.13c-1.38-1.18-3.2-1.83-5.13-1.83s-3.76,0.65-5.13,1.83c-1.23,1.06-2.03,2.47-2.34,4.13
	c-1.39-0.95-2.96-1.39-4.58-1.26c-1.81,0.14-3.56,0.97-4.92,2.33c-1.37,1.37-2.2,3.12-2.33,4.92c-0.16,2.06,0.58,4.01,2.13,5.65
	c0.14,0.15,0.29,0.3,0.44,0.45c5.61,5.61,12.59,6.83,15.45,7.09c-0.33,2.33-1.68,4.38-3.74,5.62c-2.34,1.41-5.16,1.49-7.54,0.23
	c-0.08-0.04-0.16-0.09-0.24-0.13l-0.43-0.25l-1.2,2.11l0.43,0.24c0.1,0.06,0.21,0.12,0.31,0.17c2.22,1.17,4.84,1.47,7.23,0.84
	c-1.2,0.77-2.54,1.33-3.97,1.65c-2.65,0.6-5.47,0.3-7.93-0.83l-0.41-0.19L20,67.54l0.49,0.23c2.94,1.38,6.4,1.76,9.6,1.05
	c3.32-0.75,6.2-2.55,8.33-5.21c0.13-0.16,0.25-0.33,0.38-0.49v6.07h2.42V63.1c0.13,0.17,0.25,0.35,0.39,0.51
	c2.13,2.66,5.01,4.46,8.33,5.21c1.07,0.24,2.17,0.36,3.27,0.36c2.19,0,4.37-0.49,6.33-1.41L60,67.54L58.79,65.44z M34.8,39.21
	c0-0.14-0.01-0.28-0.01-0.43c0-0.19,0-0.38,0.01-0.56c0.09-3.42,2.76-4.98,5.2-4.98s5.11,1.56,5.2,4.98
	c0.01,0.19,0.01,0.38,0.01,0.56c0,0.15,0,0.29-0.01,0.44l-0.09,3.26l2.27-2.4c0.09-0.1,0.18-0.19,0.28-0.29
	c0.13-0.13,0.27-0.26,0.4-0.39c2.48-2.35,5.47-1.57,7.2,0.16c1.73,1.73,2.51,4.71,0.16,7.2c-0.13,0.14-0.26,0.27-0.39,0.4
	C48.7,53.51,40.08,53.62,40,53.62c-0.09,0-8.69-0.11-15.03-6.45c-0.13-0.13-0.26-0.27-0.39-0.4c-2.35-2.49-1.57-5.47,0.16-7.2
	c1.04-1.04,2.41-1.64,3.75-1.64c1.25,0,2.41,0.5,3.45,1.48c0.14,0.13,0.27,0.26,0.4,0.39c0.1,0.11,0.2,0.21,0.31,0.32l2.25,2.37
	L34.8,39.21z"/>
</svg>
