<?xml version="1.0" encoding="UTF-8"?>
<svg xmlns="http://www.w3.org/2000/svg" xmlns:xlink="http://www.w3.org/1999/xlink" viewBox="0 0 60 60" width="60px" height="60px">
<g id="surface191003327">
<path style=" stroke:none;fill-rule:nonzero;fill:rgb(100%,100%,100%);fill-opacity:1;" d="M 56 13.875 C 54.085938 14.722656 52.03125 15.296875 49.871094 15.554688 C 52.074219 14.234375 53.765625 12.144531 54.5625 9.652344 C 52.503906 10.875 50.21875 11.761719 47.785156 12.242188 C 45.839844 10.167969 43.066406 8.871094 40 8.871094 C 34.109375 8.871094 29.332031 13.648438 29.332031 19.539062 C 29.332031 20.375 29.429688 21.191406 29.609375 21.96875 C 20.742188 21.527344 12.882812 17.277344 7.617188 10.820312 C 6.703125 12.398438 6.175781 14.230469 6.175781 16.1875 C 6.175781 19.886719 8.058594 23.152344 10.921875 25.066406 C 9.171875 25.011719 7.527344 24.53125 6.089844 23.730469 C 6.089844 23.777344 6.089844 23.820312 6.089844 23.867188 C 6.089844 29.035156 9.765625 33.347656 14.644531 34.324219 C 13.753906 34.570312 12.808594 34.699219 11.835938 34.699219 C 11.148438 34.699219 10.476562 34.632812 9.828125 34.511719 C 11.1875 38.746094 15.125 41.835938 19.792969 41.921875 C 16.144531 44.78125 11.542969 46.488281 6.542969 46.488281 C 5.683594 46.488281 4.835938 46.4375 3.996094 46.339844 C 8.71875 49.363281 14.324219 51.128906 20.351562 51.128906 C 39.976562 51.128906 50.703125 34.875 50.703125 20.777344 C 50.703125 20.3125 50.695312 19.855469 50.675781 19.394531 C 52.761719 17.890625 54.570312 16.011719 56 13.875 Z M 56 13.875 "/>
</g>
</svg>
